<svg width="32" height="27" viewBox="0 0 32 27" fill="none" xmlns="http://www.w3.org/2000/svg">
<g clip-path="url(#clip0_761_504)">
<path d="M5.13588 11.4158H12.1722C12.6917 11.4158 13.1145 10.993 13.1145 10.4735C13.1145 9.95407 12.6917 9.53125 12.1722 9.53125H5.13588C4.61642 9.53125 4.1936 9.95407 4.1936 10.4735C4.1936 10.993 4.61642 11.4158 5.13588 11.4158Z" fill="white"/>
<path d="M12.1724 11.5214H5.13599C4.55815 11.5214 4.08813 11.0513 4.08813 10.4735C4.08813 9.89568 4.55815 9.42566 5.13599 9.42566H12.1724C12.7502 9.42566 13.2202 9.89568 13.2202 10.4735C13.2202 11.0513 12.7502 11.5214 12.1724 11.5214ZM5.13599 9.63682C4.67466 9.63682 4.2993 10.0122 4.2993 10.4735C4.2993 10.9348 4.67466 11.3102 5.13599 11.3102H12.1724C12.6337 11.3102 13.0091 10.9348 13.0091 10.4735C13.0091 10.0122 12.6337 9.63682 12.1724 9.63682H5.13599Z" fill="white"/>
<path d="M13.1277 15.1492C13.1277 14.6297 12.7049 14.2069 12.1854 14.2069H1.93641C1.41696 14.2069 0.994141 14.6297 0.994141 15.1492C0.994141 15.6686 1.41696 16.0915 1.93641 16.0915H12.1852C12.7046 16.0915 13.1274 15.6686 13.1274 15.1492H13.1277Z" fill="white"/>
<path d="M12.1855 16.197H1.93653C1.35869 16.197 0.888672 15.727 0.888672 15.1492C0.888672 14.5713 1.35869 14.1013 1.93653 14.1013H12.1853C12.7631 14.1013 13.2331 14.5713 13.2331 15.1492C13.2331 15.727 12.7631 16.197 12.1853 16.197H12.1855ZM1.93653 14.3125C1.4752 14.3125 1.09983 14.6878 1.09983 15.1492C1.09983 15.6105 1.4752 15.9859 1.93653 15.9859H12.1853C12.6466 15.9859 13.022 15.6105 13.022 15.1492C13.022 14.6878 12.6466 14.3125 12.1853 14.3125H1.93653Z" fill="white"/>
<path d="M13.1132 19.825C13.1132 19.3055 12.6904 18.8827 12.1709 18.8827H6.40101C5.88156 18.8827 5.45874 19.3055 5.45874 19.825C5.45874 20.3444 5.88156 20.7672 6.40101 20.7672H12.1709C12.6904 20.7672 13.1132 20.3444 13.1132 19.825Z" fill="white"/>
<path d="M12.171 20.8728H6.40113C5.82329 20.8728 5.35327 20.4028 5.35327 19.825C5.35327 19.2471 5.82329 18.7771 6.40113 18.7771H12.171C12.7489 18.7771 13.2189 19.2471 13.2189 19.825C13.2189 20.4028 12.7489 20.8728 12.171 20.8728ZM6.40113 18.9883C5.9398 18.9883 5.56443 19.3636 5.56443 19.825C5.56443 20.2863 5.9398 20.6616 6.40113 20.6616H12.171C12.6324 20.6616 13.0077 20.2863 13.0077 19.825C13.0077 19.3636 12.6324 18.9883 12.171 18.9883H6.40113Z" fill="white"/>
<path d="M30.9474 15.053C30.9235 12.0729 29.7897 9.24363 27.7549 7.08606C25.7526 4.96278 23.0532 3.67097 20.1446 3.44168V1.99038H21.3641C21.8836 1.99038 22.3064 1.56756 22.3064 1.04811C22.3064 0.528653 21.8836 0.105835 21.3641 0.105835H17.0403C16.5209 0.105835 16.098 0.528653 16.098 1.04811C16.098 1.56756 16.5209 1.99038 17.0403 1.99038H18.2598V3.44217C15.9512 3.62551 13.7703 4.4786 11.9471 5.913C11.6244 6.16689 11.5024 6.58077 11.6363 6.96732C11.7693 7.35113 12.1183 7.59931 12.5257 7.59931C12.7359 7.59931 12.9436 7.52677 13.1107 7.39535C13.9807 6.71094 14.9503 6.18205 15.992 5.82332C17.0711 5.45168 18.2029 5.27232 19.3566 5.28995C20.6703 5.31008 21.9435 5.58632 23.1409 6.11125C24.2978 6.61828 25.336 7.33474 26.2271 8.24099C27.1179 9.14699 27.8167 10.1976 28.3044 11.3629C28.8089 12.5693 29.0641 13.8469 29.0626 15.1608C29.0611 16.4909 28.7992 17.781 28.2845 18.995C27.7874 20.1678 27.0762 21.2214 26.1707 22.1257C25.2652 23.0302 24.2111 23.7404 23.0375 24.2363C21.8227 24.7498 20.5322 25.0101 19.2019 25.0101C18.077 25.0101 16.9737 24.8223 15.9227 24.4517C14.9069 24.0934 13.9606 23.5727 13.1102 22.9035C12.9433 22.7721 12.7356 22.6998 12.5255 22.6998C12.1178 22.6998 11.7683 22.9487 11.6349 23.3338C11.5015 23.7188 11.6222 24.1305 11.9422 24.3826C12.9552 25.1803 14.0828 25.8014 15.2936 26.2287C16.5462 26.6706 17.8611 26.8947 19.2019 26.8947C20.7958 26.8947 22.3414 26.5809 23.7957 25.9623C25.2006 25.3646 26.4603 24.5098 27.5402 23.4212C28.6199 22.3329 29.4645 21.0666 30.0506 19.6576C30.6577 18.1978 30.9593 16.6487 30.9464 15.0535L30.9474 15.053Z" fill="white"/>
<path d="M19.2025 27C17.8498 27 16.5232 26.7739 15.2593 26.328C14.0377 25.897 12.9 25.2702 11.8777 24.4653C11.5217 24.1851 11.3876 23.7273 11.5359 23.299C11.6842 22.8707 12.073 22.5939 12.5263 22.5939C12.7599 22.5939 12.9909 22.6744 13.1765 22.8203C14.0179 23.4821 14.9539 23.9975 15.9586 24.3518C16.9982 24.7185 18.0898 24.9043 19.2025 24.9043C20.5186 24.9043 21.7953 24.6467 22.9972 24.1389C24.1581 23.6483 25.2009 22.9457 26.0968 22.0509C26.9926 21.1561 27.6961 20.1139 28.188 18.9538C28.6973 17.7527 28.9561 16.4765 28.9576 15.1606C28.9591 13.8608 28.7067 12.5969 28.2076 11.4034C27.7252 10.2505 27.0338 9.21108 26.1524 8.31476C25.271 7.4182 24.2438 6.70944 23.0993 6.20788C21.9148 5.68867 20.6553 5.4154 19.3558 5.39553C18.215 5.37789 17.0946 5.55551 16.0271 5.92293C14.9967 6.27768 14.0375 6.80086 13.1767 7.47807C12.9909 7.62414 12.7601 7.70463 12.5263 7.70463C12.0732 7.70463 11.6849 7.42863 11.5371 7.00159C11.3883 6.57157 11.5237 6.11174 11.8824 5.82953C13.6952 4.40357 15.8619 3.54551 18.1549 3.34454V2.09571H17.041C16.4631 2.09571 15.9931 1.62569 15.9931 1.04785C15.9931 0.470019 16.4626 0 17.0405 0H21.3643C21.9421 0 22.4121 0.470019 22.4121 1.04785C22.4121 1.62569 21.9421 2.09571 21.3643 2.09571H20.2503V3.34429C23.1467 3.59644 25.8359 4.89719 27.8318 7.01352C29.885 9.19071 31.029 12.0454 31.0531 15.052C31.066 16.6616 30.7619 18.2247 30.1491 19.6976C29.5576 21.1193 28.7055 22.3969 27.6161 23.495C26.5265 24.5933 25.2554 25.456 23.8378 26.059C22.3702 26.6833 20.8108 26.9998 19.2025 26.9998V27ZM12.5261 22.8051C12.1641 22.8051 11.8539 23.0262 11.7354 23.368C11.6169 23.7099 11.7239 24.0756 12.0081 24.2991C13.0123 25.0899 14.1297 25.7052 15.3293 26.1285C16.5707 26.5665 17.8737 26.7886 19.2022 26.7886C20.7817 26.7886 22.3135 26.4778 23.7549 25.8647C25.147 25.2725 26.3956 24.4251 27.4658 23.3462C28.5358 22.2675 29.373 21.0127 29.9538 19.6163C30.5555 18.1698 30.8543 16.6347 30.8417 15.0535C30.8181 12.1003 29.6944 9.29629 27.678 7.1581C25.6958 5.05618 23.0175 3.77357 20.1363 3.54651L20.0389 3.5388V1.88405H21.3643C21.8256 1.88405 22.201 1.50868 22.201 1.04736C22.201 0.586033 21.8256 0.210664 21.3643 0.210664H17.0405C16.5791 0.210664 16.2038 0.586033 16.2038 1.04736C16.2038 1.50868 16.5791 1.88405 17.0405 1.88405H18.3658V3.53905L18.2684 3.54675C15.9812 3.72835 13.8179 4.57498 12.0126 5.99522C11.7259 6.22079 11.6176 6.58846 11.7363 6.93203C11.8543 7.27287 12.1644 7.49298 12.5261 7.49298C12.7127 7.49298 12.8972 7.42863 13.0458 7.31163C13.9252 6.61976 14.905 6.08515 15.9581 5.7227C17.0489 5.34709 18.1926 5.16598 19.3588 5.18362C20.6866 5.20399 21.9734 5.48322 23.184 6.01361C24.3531 6.52611 25.4027 7.25002 26.303 8.16596C27.2032 9.08165 27.9095 10.1432 28.4024 11.3212C28.9124 12.5405 29.1703 13.832 29.1688 15.1601C29.1673 16.5043 28.9027 17.8081 28.3825 19.0355C27.88 20.221 27.1613 21.2857 26.2461 22.1997C25.3309 23.1139 24.2656 23.8316 23.0794 24.3329C21.8514 24.8519 20.547 25.115 19.2025 25.115C18.0657 25.115 16.9505 24.9249 15.8883 24.5503C14.8615 24.1883 13.9053 23.6619 13.0458 22.9857C12.8972 22.869 12.7129 22.8046 12.5263 22.8046L12.5261 22.8051Z" fill="white"/>
<path d="M24.3691 10.6197C24.2019 10.4314 23.9716 10.3196 23.7205 10.3044C23.4693 10.2895 23.2271 10.3732 23.039 10.5402L19.7305 13.4763C19.5598 13.4224 19.3825 13.3951 19.2026 13.3951C18.2355 13.3951 17.4487 14.1818 17.4487 15.149C17.4487 16.1161 18.2355 16.9028 19.2026 16.9028C20.1697 16.9028 20.9565 16.1161 20.9565 15.149C20.9565 15.0737 20.9515 14.9974 20.9416 14.9211L24.2901 11.9495C24.6786 11.6047 24.7141 11.008 24.3693 10.6192L24.3691 10.6197Z" fill="white"/>
<path d="M19.2025 17.0088C18.1772 17.0088 17.343 16.1746 17.343 15.1494C17.343 14.1241 18.1772 13.2899 19.2025 13.2899C19.3729 13.2899 19.5413 13.313 19.7043 13.3587L22.9688 10.4616C23.1783 10.2758 23.4473 10.1826 23.7268 10.1993C24.0063 10.2159 24.2624 10.3404 24.4482 10.5498C24.8318 10.9821 24.792 11.6456 24.36 12.0292L21.0527 14.9643C21.0589 15.0262 21.0622 15.0883 21.0622 15.1496C21.0622 16.1749 20.228 17.0091 19.2027 17.0091L19.2025 17.0088ZM19.2025 13.5008C18.2937 13.5008 17.5542 14.2402 17.5542 15.1491C17.5542 16.0581 18.2935 16.7974 19.2025 16.7974C20.1115 16.7974 20.8508 16.0581 20.8508 15.1491C20.8508 15.0786 20.846 15.0065 20.8366 14.935L20.8294 14.8794L24.2199 11.8704C24.565 11.5641 24.5965 11.0345 24.2902 10.6894C24.1419 10.5222 23.9372 10.4229 23.7144 10.4097C23.4915 10.3963 23.2764 10.4708 23.1092 10.6191L19.756 13.595L19.6988 13.5769C19.5386 13.5262 19.3717 13.5006 19.2027 13.5006L19.2025 13.5008Z" fill="white"/>
</g>
<defs>
<clipPath id="clip0_761_504">
<rect width="30.1647" height="27" fill="white" transform="translate(0.888672)"/>
</clipPath>
</defs>
</svg>
