<svg width="32" height="32" viewBox="0 0 32 32" fill="none" xmlns="http://www.w3.org/2000/svg">
<path d="M24.8969 13.3772C24.7376 13.0785 24.4179 12.8908 24.0687 12.8908H18.6592L20.2114 2.01645C20.2706 1.60285 20.0237 1.2046 19.617 1.05725C19.2104 0.910471 18.7516 1.05327 18.5124 1.40145L7.1542 17.9348C6.96536 18.2096 6.94879 18.5617 7.11099 18.8519C7.27319 19.142 7.58812 19.3224 7.93087 19.3224H13.2628L10.9665 29.923C10.8771 30.3366 11.1009 30.7542 11.5034 30.9243C11.6242 30.9755 11.7515 31 11.8776 31C12.17 31 12.4547 30.8674 12.6341 30.6268L24.8252 14.3068C25.0289 14.0343 25.0567 13.6753 24.8974 13.3766L24.8969 13.3772ZM13.6855 26.1522L15.3193 18.6101C15.3761 18.3467 15.3069 18.0719 15.1305 17.8631C14.9541 17.6543 14.6883 17.5331 14.4083 17.5331H9.66121L17.8109 5.67061L16.6702 13.6639C16.6335 13.9199 16.714 14.1788 16.891 14.3734C17.068 14.5679 17.3237 14.68 17.5925 14.68H22.2549L13.6855 26.1522Z" fill="white"/>
</svg>
