<svg width="30" height="24" viewBox="0 0 30 24" fill="none" xmlns="http://www.w3.org/2000/svg">
<g clip-path="url(#clip0_761_532)">
<path d="M7.05339 20.2141C-2.93061 17.0445 -2.56721 1.45944 9.7568 0.069694C11.6629 -0.0871175 13.6474 0.069694 15.5623 0.069694C20.0249 0.0667538 23.503 -0.26647 26.9763 3.16868C31.0334 7.18305 30.9864 13.8593 26.9616 17.8688C23.9948 20.8247 21.2678 20.9158 17.3969 20.906H12.4876C11.9283 21.4745 9.52172 23.8286 8.88603 23.9736C7.33451 24.3284 7.21403 21.1216 7.05339 20.2151V20.2141ZM18.2157 1.97201H12.9607C11.4876 1.97103 9.89883 1.84852 8.46093 2.19449C0.592639 4.08701 -0.511253 14.7365 6.8379 18.0903C9.61673 19.3585 8.38355 18.4372 9.24453 21.2873C9.73917 20.858 10.2074 20.3983 10.7001 19.9671C12.1644 18.6283 12.3378 19.0135 14.3105 19.0262H18.0237C18.919 19.0282 19.8241 19.0556 20.7144 18.9537C30.8238 17.7923 30.4849 2.30622 19.6918 1.97201C19.1991 1.95633 18.7074 1.96123 18.2148 1.97201H18.2157Z" fill="white"/>
<path d="M10.1652 12.2561C7.72818 12.2914 7.26097 9.08265 9.75672 8.61515C12.2133 8.50538 12.5169 11.9023 10.1652 12.2561Z" fill="white"/>
<path d="M20.6252 12.2561C18.1353 12.5786 17.531 9.54623 19.6604 8.61516C22.1434 8.48285 22.8996 11.428 20.6252 12.2561Z" fill="white"/>
</g>
<defs>
<clipPath id="clip0_761_532">
<rect width="29.9997" height="24.0009" fill="white"/>
</clipPath>
</defs>
</svg>
