<svg width="32" height="32" viewBox="0 0 32 32" fill="none" xmlns="http://www.w3.org/2000/svg">
<path d="M31.7864 23.5131C31.7024 22.5285 31.6345 21.8154 31.5732 21.2677C31.4977 20.6037 31.3392 19.8568 31.1024 19.0503C30.607 17.3564 29.9966 15.9128 29.2889 14.7598C28.402 13.3123 27.5538 12.2045 26.7688 11.4663C24.9195 9.72818 22.7767 8.46065 20.4019 7.69744C19.7112 7.47512 19.0772 7.32498 18.5167 7.25087L18.2592 7.21719C17.2043 7.07667 16.0098 6.91787 14.9068 7.04876C14.4445 7.10362 14.119 7.14212 13.9284 7.16522C13.7954 7.18062 13.7265 7.18928 13.7265 7.18928C12.5018 7.35 11.763 7.4655 11.529 7.53287C8.08988 8.5261 5.18667 10.5578 3.13451 13.4085C1.06254 16.2843 0.0576902 19.725 0.229411 23.3562C0.250169 23.8153 0.436042 24.1541 0.779484 24.3639C0.856853 24.4111 0.949318 24.437 1.0399 24.437C5.2697 24.439 8.73714 24.439 11.346 24.437C11.5252 24.437 11.6941 24.4111 11.8442 24.3591C11.9395 24.3283 12.0017 24.336 12.0546 24.4698C12.4093 25.3725 13.017 26.0443 13.8623 26.4649C14.5879 26.8258 15.3229 27 16.0306 27C17.6525 27 19.1253 26.0847 19.9698 24.4159L31.0703 24.4563C31.1373 24.4592 31.2061 24.4438 31.2646 24.412C31.6392 24.2224 31.8194 23.9106 31.7855 23.5121L31.7864 23.5131ZM15.2125 25.1415C14.5407 24.9308 13.9869 24.4765 13.6529 23.8625C13.3198 23.2494 13.2453 22.5516 13.4434 21.8953C13.6406 21.2398 14.0869 20.7047 14.7002 20.389C15.0729 20.1975 15.4786 20.1003 15.8909 20.1003C16.1598 20.1003 16.4306 20.1417 16.6957 20.2245C17.3675 20.4352 17.9214 20.8895 18.2554 21.5035C18.5884 22.1166 18.663 22.8144 18.4648 23.4708C18.2676 24.1262 17.8214 24.6613 17.2081 24.977C16.5929 25.2936 15.8843 25.3523 15.2125 25.1415ZM18.4998 19.1706L21.9285 14.1236C22.1965 13.73 22.1248 13.1823 21.7643 12.8782L21.7162 12.8378C21.5483 12.6944 21.3275 12.6309 21.1105 12.6626C20.8954 12.6944 20.7019 12.8176 20.5812 13.0014L17.0043 18.4055C16.9863 18.4334 16.9552 18.4478 16.9222 18.443C16.1372 18.3381 15.2389 18.2515 14.5124 18.5479C13.0802 19.1273 12.1178 20.2225 11.8017 21.6335C11.7894 21.6922 11.6555 22.208 11.5564 22.5901C11.5422 22.6411 11.4979 22.6768 11.4469 22.6768H1.9787C1.96926 22.6768 1.96077 22.6671 1.96077 22.6575C1.94662 21.9905 1.95417 21.5026 1.98342 21.21C2.34384 17.7231 3.78271 14.7694 6.2604 12.4326C7.78135 10.9957 9.48818 9.98611 11.3337 9.43271C11.8857 9.26717 13.0273 9.07276 14.7257 8.85429C14.9398 8.82638 15.2116 8.81194 15.5371 8.81194C16.0362 8.81194 16.6637 8.84466 17.4138 8.91011C18.5215 9.00539 19.4084 9.16804 20.0518 9.39325C22.0144 10.0785 23.7882 11.117 25.1808 12.3941C26.4385 13.55 27.5151 14.9696 28.3794 16.6144C28.6483 17.1235 28.9058 17.7616 29.1436 18.5133C29.6361 20.0589 29.9343 21.2379 29.9984 22.6719H20.3085C20.2981 21.4468 19.6263 20.1687 18.5111 19.2534C18.4865 19.2332 18.4809 19.1966 18.4998 19.1696V19.1706Z" fill="white"/>
</svg>
